<svg width="21" height="20" viewBox="0 0 21 20" fill="none" xmlns="http://www.w3.org/2000/svg">
<path fill-rule="evenodd" clip-rule="evenodd" d="M10.2501 18.3327C5.64771 18.3327 1.91675 14.6017 1.91675 9.99935C1.91675 5.39698 5.64771 1.66602 10.2501 1.66602C14.8525 1.66602 18.5834 5.39698 18.5834 9.99935C18.5834 14.6017 14.8525 18.3327 10.2501 18.3327ZM9.85869 7.05741C9.61461 6.81333 9.21888 6.81333 8.97481 7.05741L6.47481 9.55741C6.23073 9.80148 6.23073 10.1972 6.47481 10.4413L8.97481 12.9413C9.21888 13.1854 9.61461 13.1854 9.85869 12.9413C10.1028 12.6972 10.1028 12.3015 9.85869 12.0574L8.42563 10.6243H13.5834C13.9286 10.6243 14.2084 10.3445 14.2084 9.99935C14.2084 9.65417 13.9286 9.37435 13.5834 9.37435H8.42563L9.85869 7.94129C10.1028 7.69721 10.1028 7.30148 9.85869 7.05741Z" fill="#F64E2A"/>
</svg>
