<svg width="23" height="23" viewBox="0 0 23 23" fill="none" xmlns="http://www.w3.org/2000/svg">
<g clip-path="url(#clip0_313_8424)">
<path d="M22.6553 14.2821C21.1194 20.4429 14.8795 24.1923 8.71804 22.6559C2.55907 21.12 -1.19029 14.8798 0.3464 8.71937C1.88165 2.55789 8.12148 -1.19183 14.2812 0.344136C20.4423 1.8801 24.1913 8.12101 22.6553 14.2821Z" fill="white"/>
<path d="M16.5703 9.86239C16.7992 8.33217 15.6342 7.50956 14.041 6.9608L14.5578 4.88792L13.2961 4.57347L12.7929 6.59172C12.4612 6.50906 12.1205 6.43108 11.782 6.35381L12.2887 4.32227L11.0277 4.00781L10.5105 6.07997C10.236 6.01744 9.96645 5.95562 9.70482 5.89058L9.70626 5.88411L7.96617 5.44962L7.63051 6.79728C7.63051 6.79728 8.56668 7.01183 8.54692 7.02512C9.05795 7.1527 9.15031 7.49087 9.13485 7.75897L8.5462 10.1204C8.58142 10.1294 8.62706 10.1423 8.67737 10.1625C8.63532 10.152 8.5904 10.1405 8.54404 10.1294L7.71892 13.4375C7.65639 13.5927 7.4979 13.8256 7.14068 13.7372C7.15326 13.7555 6.22356 13.5082 6.22356 13.5082L5.59717 14.9526L7.23915 15.3619C7.54462 15.4385 7.84398 15.5186 8.13867 15.5941L7.6165 17.6907L8.87682 18.0051L9.39396 15.9308C9.73825 16.0242 10.0725 16.1105 10.3995 16.1917L9.88415 18.2563L11.1459 18.5708L11.6681 16.4781C13.8197 16.8853 15.4376 16.7211 16.1186 14.775C16.6674 13.2082 16.0913 12.3043 14.9592 11.715C15.7837 11.5249 16.4047 10.9826 16.5703 9.86239ZM13.6874 13.905C13.2975 15.4719 10.6593 14.6248 9.80401 14.4124L10.4969 11.6348C11.3522 11.8483 14.0949 12.2709 13.6874 13.905ZM14.0777 9.83975C13.7219 11.265 11.5261 10.5409 10.8139 10.3634L11.442 7.84414C12.1543 8.02167 14.4482 8.35302 14.0777 9.83975Z" fill="#3C3C48"/>
</g>
<defs>
<clipPath id="clip0_313_8424">
<rect width="23" height="23" fill="white"/>
</clipPath>
</defs>
</svg>
