<svg width="39" height="38" viewBox="0 0 39 38" fill="none" xmlns="http://www.w3.org/2000/svg">
<path d="M28.0185 17.0202C28.0185 16.6718 27.6385 16.2285 27.2268 16.2285H24.1552H23.4585V17.8118H27.2268C27.6543 17.8118 28.0185 17.4635 28.0185 17.0202Z" fill="#F64E2A"/>
<path d="M27.9235 20.1875H27.211H23.4585V21.7708H24.1552H27.9235C28.5093 21.7708 29.0002 21.4067 29.0002 20.9792C29.0002 20.5517 28.5093 20.1875 27.9235 20.1875Z" fill="#F64E2A"/>
<path d="M28.7623 5.38281H10.2373C6.6115 5.38281 3.6665 8.31198 3.6665 11.9378V26.0611C3.6665 29.687 6.6115 32.6161 10.2373 32.6161H28.7623C32.3882 32.6161 35.3332 29.687 35.3332 26.0611V11.9378C35.3332 8.31198 32.3882 5.38281 28.7623 5.38281ZM15.1457 20.187H8.81234C8.16317 20.187 7.62484 19.6486 7.62484 18.9995C7.62484 18.3503 8.16317 17.812 8.81234 17.812H15.1457C15.7948 17.812 16.3332 18.3503 16.3332 18.9995C16.3332 19.6486 15.7948 20.187 15.1457 20.187ZM27.9232 24.1453H26.2448V24.937C26.2448 25.5861 25.7065 26.1245 25.0573 26.1245C24.4082 26.1245 23.8698 25.5861 23.8698 24.937V24.1453H22.2707H20.6873C20.0382 24.1453 19.4998 23.607 19.4998 22.9578C19.4998 22.3086 20.0382 21.7703 20.6873 21.7703H21.0832V18.9995V16.2286H20.6873C20.0382 16.2286 19.4998 15.6903 19.4998 15.0411C19.4998 14.392 20.0382 13.8536 20.6873 13.8536H22.2707H23.8698V13.062C23.8698 12.4128 24.4082 11.8745 25.0573 11.8745C25.7065 11.8745 26.2448 12.4128 26.2448 13.062V13.8536H27.2107C28.9048 13.8536 30.3773 15.3261 30.3773 17.0203C30.3773 17.5428 30.2348 18.0336 30.0132 18.477C30.8365 19.0628 31.3748 19.9653 31.3748 20.9786C31.3748 22.7203 29.8232 24.1453 27.9232 24.1453Z" fill="#F64E2A"/>
</svg>
