<svg width="51" height="50" viewBox="0 0 51 50" fill="none" xmlns="http://www.w3.org/2000/svg">
<g filter="url(#filter0_f_313_7705)">
<path d="M25.4998 30.8583V31.0325C25.4998 31.4758 25.1515 31.8242 24.7082 31.8242H10.4582C10.0148 31.8242 9.6665 31.4758 9.6665 31.0325V30.8583C9.6665 28.0717 10.3632 27.375 13.1815 27.375H21.9848C24.8032 27.375 25.4998 28.0717 25.4998 30.8583Z" fill="#F64E2A" fill-opacity="0.4"/>
<path d="M10.4582 33.4082C10.0148 33.4082 9.6665 33.7565 9.6665 34.1999V35.7832V37.3507C9.6665 40.1374 10.3632 40.834 13.1815 40.834H21.9848C24.8032 40.834 25.4998 40.1374 25.4998 37.3507V35.7832V34.1999C25.4998 33.7565 25.1515 33.4082 24.7082 33.4082H10.4582Z" fill="#F64E2A" fill-opacity="0.4"/>
<path d="M41.3333 29.75C41.3333 35.8775 36.3775 40.8333 30.25 40.8333L31.9125 38.0625" stroke="#F64E2A" stroke-opacity="0.4" stroke-width="1.5" stroke-linecap="round" stroke-linejoin="round"/>
<path d="M9.6665 20.2493C9.6665 14.1218 14.6223 9.16602 20.7498 9.16602L19.0873 11.9368" stroke="#F64E2A" stroke-opacity="0.4" stroke-width="1.5" stroke-linecap="round" stroke-linejoin="round"/>
<path d="M35.7915 23.416C39.7265 23.416 42.9165 20.226 42.9165 16.291C42.9165 12.356 39.7265 9.16602 35.7915 9.16602C31.8565 9.16602 28.6665 12.356 28.6665 16.291C28.6665 20.226 31.8565 23.416 35.7915 23.416Z" fill="#F6C32A" fill-opacity="0.4"/>
</g>
<path d="M25.4998 30.8583V31.0325C25.4998 31.4758 25.1515 31.8242 24.7082 31.8242H10.4582C10.0148 31.8242 9.6665 31.4758 9.6665 31.0325V30.8583C9.6665 28.0717 10.3632 27.375 13.1815 27.375H21.9848C24.8032 27.375 25.4998 28.0717 25.4998 30.8583Z" fill="#F64E2A"/>
<path d="M10.4582 33.4082C10.0148 33.4082 9.6665 33.7565 9.6665 34.1999V35.7832V37.3507C9.6665 40.1374 10.3632 40.834 13.1815 40.834H21.9848C24.8032 40.834 25.4998 40.1374 25.4998 37.3507V35.7832V34.1999C25.4998 33.7565 25.1515 33.4082 24.7082 33.4082H10.4582Z" fill="#F64E2A"/>
<path d="M41.3333 29.75C41.3333 35.8775 36.3775 40.8333 30.25 40.8333L31.9125 38.0625" stroke="#F64E2A" stroke-width="1.5" stroke-linecap="round" stroke-linejoin="round"/>
<path d="M9.6665 20.2493C9.6665 14.1218 14.6223 9.16602 20.7498 9.16602L19.0873 11.9368" stroke="#F64E2A" stroke-width="1.5" stroke-linecap="round" stroke-linejoin="round"/>
<path d="M35.7915 23.416C39.7265 23.416 42.9165 20.226 42.9165 16.291C42.9165 12.356 39.7265 9.16602 35.7915 9.16602C31.8565 9.16602 28.6665 12.356 28.6665 16.291C28.6665 20.226 31.8565 23.416 35.7915 23.416Z" fill="#FFB20C"/>
<defs>
<filter id="filter0_f_313_7705" x="0.916504" y="0.416016" width="50" height="49.168" filterUnits="userSpaceOnUse" color-interpolation-filters="sRGB">
<feFlood flood-opacity="0" result="BackgroundImageFix"/>
<feBlend mode="normal" in="SourceGraphic" in2="BackgroundImageFix" result="shape"/>
<feGaussianBlur stdDeviation="4" result="effect1_foregroundBlur_313_7705"/>
</filter>
</defs>
</svg>
