<svg width="28" height="22" viewBox="0 0 28 22" fill="none" xmlns="http://www.w3.org/2000/svg">
<path d="M12.7316 18.4693C12.7161 18.5268 12.7006 18.5842 12.685 18.6417C12.9758 18.788 13.2592 18.9509 13.559 19.0776C15.7021 19.9809 17.8469 20.8779 19.9942 21.7717C20.2172 21.8646 20.4516 21.948 20.6901 21.9865C21.1327 22.0581 21.4423 21.841 21.4897 21.409C21.5166 21.1682 21.4807 20.9117 21.4243 20.6733C20.9923 18.8203 20.5316 16.9735 20.1151 15.1174C19.8537 13.9552 20.1412 12.8906 20.9776 12.0141C22.9949 9.90139 25.0401 7.81231 27.0697 5.71065C27.2968 5.47538 27.6259 5.21809 27.4503 4.86873C27.2658 4.50284 26.8484 4.63189 26.5266 4.68225C23.3992 5.16852 20.2727 5.6658 17.1478 6.16545C16.9305 6.20007 16.7214 6.28111 16.5083 6.34013C16.5091 6.38498 16.5107 6.42904 16.5115 6.47389C16.7125 6.51953 16.9118 6.58326 17.1151 6.60608C18.047 6.71231 18.9798 6.80437 19.9125 6.90744C20.3193 6.95229 20.7815 6.96803 20.9343 7.41496C21.087 7.86031 20.726 8.14279 20.4328 8.41504C19.3735 9.39623 18.3076 10.3719 17.245 11.3492C16.3531 12.1699 16.1089 13.3249 16.6038 14.4092C17.0522 15.3928 17.5129 16.3716 17.9572 17.3567C18.3541 18.238 17.8812 18.8722 16.8995 18.7809C15.7217 18.6716 14.5448 18.5488 13.3662 18.4434C13.1579 18.4245 12.944 18.4591 12.7324 18.4686L12.7316 18.4693ZM9.20484 12.14C9.26528 12.1274 9.32491 12.1148 9.38535 12.1022C9.41312 11.889 9.45477 11.6765 9.46621 11.4625C9.52991 10.2862 9.53726 9.10431 9.66305 7.93349C9.75861 7.04671 10.4202 6.64778 11.3317 6.82246C12.7169 7.08842 14.0972 7.38348 15.4824 7.64865C15.7054 7.69114 15.948 7.63921 16.1816 7.63134C16.046 7.43935 15.9472 7.20566 15.7699 7.06324C14.633 6.14735 13.4781 5.25271 12.3298 4.34941C10.6342 3.01571 8.94348 1.67571 7.23973 0.350663C7.01186 0.172837 6.71946 -0.157639 6.43768 0.0870699C6.26861 0.233423 6.24165 0.648877 6.30536 0.908536C7.18011 4.47452 8.08017 8.03499 8.98024 11.5955C9.02761 11.7835 9.12807 11.959 9.20403 12.1407L9.20484 12.14ZM7.91927 11.9779C7.88088 11.9574 7.84331 11.937 7.80493 11.9173C7.65791 12.0353 7.49619 12.1407 7.36469 12.2737C5.21499 14.4446 3.06856 16.6179 0.924576 18.7935C0.794712 18.9257 0.670565 19.0713 0.580722 19.2302C0.401852 19.5473 0.525183 19.7771 0.901707 19.8023C1.12795 19.8172 1.36154 19.7739 1.58697 19.7314C3.9335 19.2908 6.28004 18.847 8.62576 18.4001C10.091 18.1208 11.5587 17.8509 13.015 17.5338C13.2666 17.4787 13.5533 17.2505 13.6692 17.0271C13.8252 16.7296 13.5884 16.4479 13.3425 16.2465C12.5854 15.628 11.8217 15.0182 11.0523 14.4139C10.9413 14.3266 10.7861 14.2912 10.5411 14.1826C10.608 14.4745 10.6317 14.6524 10.6913 14.8184C10.8416 15.2393 11.0254 15.6493 11.1618 16.0734C11.3202 16.566 11.1095 16.8374 10.5754 16.8484C9.99056 16.861 9.40413 16.8256 8.82097 16.8595C7.56072 16.9334 7.087 15.9743 7.30344 15.071C7.49946 14.255 7.68078 13.4351 7.85638 12.6144C7.90049 12.4067 7.89967 12.1903 7.91927 11.9779Z" fill="white"/>
</svg>
