<svg width="21" height="21" viewBox="0 0 21 21" fill="none" xmlns="http://www.w3.org/2000/svg">
<path d="M10.9155 4.53561L6.55991 8.40726C5.74565 9.13104 5.33852 9.49293 5.18848 9.92026C5.05672 10.2955 5.05672 10.7045 5.18848 11.0797C5.33852 11.5071 5.74565 11.869 6.55991 12.5927L10.9155 16.4644C11.285 16.7929 11.4698 16.9571 11.6267 16.963C11.763 16.9681 11.8939 16.9093 11.9807 16.804C12.0806 16.6828 12.0806 16.4356 12.0806 15.9412V13.5C14.2051 13.5 16.4491 14.1824 18.0877 15.3937C18.9407 16.0243 19.3672 16.3396 19.5297 16.3272C19.688 16.3151 19.7885 16.2532 19.8707 16.1173C19.955 15.9779 19.8805 15.5422 19.7316 14.6709C18.7648 9.01299 14.8711 7.5 12.0806 7.5V5.05879C12.0806 4.56441 12.0806 4.31721 11.9807 4.19602C11.8939 4.09074 11.763 4.03195 11.6267 4.03705C11.4698 4.04293 11.285 4.20715 10.9155 4.53561Z" fill="#F64E2A"/>
<path fill-rule="evenodd" clip-rule="evenodd" d="M8.59031 3.49096C8.34369 3.22537 7.92846 3.20999 7.66287 3.45661L3.09869 7.69478C2.27012 8.46416 1.79932 9.5438 1.79932 10.6745C1.79932 11.8664 2.32228 12.9983 3.22993 13.7709L7.68405 17.5622C7.96004 17.7972 8.37422 17.7639 8.60914 17.4879C8.84406 17.2119 8.81077 16.7977 8.53478 16.5628L4.08066 12.7715C3.46598 12.2483 3.11182 11.4817 3.11182 10.6745C3.11182 9.90877 3.43065 9.17761 3.99178 8.65657L8.55596 4.4184C8.82155 4.17178 8.83693 3.75655 8.59031 3.49096Z" fill="#F64E2A"/>
</svg>
