<svg width="15" height="15" viewBox="0 0 15 15" fill="none" xmlns="http://www.w3.org/2000/svg">
<path d="M7.79672 3.23972L4.68558 6.00518C4.10397 6.52217 3.81316 6.78066 3.70599 7.0859C3.61188 7.35395 3.61188 7.64606 3.70599 7.9141C3.81316 8.21934 4.10397 8.47783 4.68558 8.99482L7.79672 11.7603C8.06066 11.9949 8.19263 12.1122 8.30472 12.1164C8.4021 12.12 8.4956 12.078 8.55757 12.0028C8.6289 11.9163 8.6289 11.7397 8.6289 11.3866V9.64286C10.1465 9.64286 11.7493 10.1303 12.9197 10.9955C13.529 11.4459 13.8337 11.6712 13.9497 11.6623C14.0628 11.6536 14.1346 11.6094 14.1933 11.5124C14.2535 11.4128 14.2003 11.1016 14.094 10.4792C13.4034 6.43785 10.6221 5.35715 8.6289 5.35715V3.61342C8.6289 3.26029 8.6289 3.08372 8.55757 2.99716C8.4956 2.92195 8.4021 2.87996 8.30472 2.88361C8.19263 2.8878 8.06066 3.00511 7.79672 3.23972Z" fill="white"/>
<path fill-rule="evenodd" clip-rule="evenodd" d="M6.13586 2.49354C5.95971 2.30383 5.66311 2.29285 5.47341 2.46901L2.21328 5.49627C1.62144 6.04583 1.28516 6.817 1.28516 7.62465C1.28516 8.47603 1.6587 9.28453 2.30702 9.83638L5.48853 12.5445C5.68567 12.7123 5.98151 12.6885 6.14932 12.4913C6.31712 12.2942 6.29334 11.9984 6.0962 11.8306L2.91469 9.12248C2.47563 8.74876 2.22266 8.20122 2.22266 7.62465C2.22266 7.07769 2.4504 6.55544 2.8512 6.18326L6.11133 3.156C6.30104 2.97984 6.31202 2.68325 6.13586 2.49354Z" fill="white"/>
</svg>
