<svg width="76" height="74" viewBox="0 0 76 74" fill="none" xmlns="http://www.w3.org/2000/svg">
<path d="M31.6296 4.72837C35.5854 2.50456 40.4146 2.50456 44.3704 4.72837L63.2794 15.3582C67.3745 17.6602 69.909 21.9925 69.909 26.6903V47.3097C69.909 52.0075 67.3745 56.3398 63.2794 58.6418L44.3704 69.2716C40.4146 71.4954 35.5854 71.4954 31.6296 69.2716L12.7206 58.6418C8.62554 56.3398 6.09103 52.0075 6.09103 47.3097V26.6903C6.09103 21.9925 8.62553 17.6602 12.7206 15.3582L31.6296 4.72837Z" stroke="#1F1E29" stroke-width="2"/>
<path d="M33.1149 7.73493C36.15 6.03573 39.85 6.03573 42.8851 7.73493L61.4639 18.1364C64.6225 19.9047 66.5788 23.2421 66.5788 26.862V47.138C66.5788 50.7579 64.6225 54.0953 61.4639 55.8636L42.8851 66.2651C39.85 67.9643 36.15 67.9643 33.1149 66.2651L14.5361 55.8636C11.3775 54.0953 9.42116 50.7579 9.42116 47.138V26.862C9.42116 23.242 11.3775 19.9047 14.5361 18.1364L33.1149 7.73493Z" fill="#1F1E29"/>
</svg>
