<svg width="16" height="16" viewBox="0 0 16 16" fill="none" xmlns="http://www.w3.org/2000/svg">
<path fill-rule="evenodd" clip-rule="evenodd" d="M14.6668 5.52961C14.6668 7.84679 12.7807 9.72523 10.454 9.72523C10.0294 9.72523 9.06278 9.62766 8.59251 9.23737L8.00465 9.82283C7.65902 10.167 7.75236 10.2684 7.90611 10.4353C7.97026 10.505 8.04493 10.5861 8.10262 10.701C8.10262 10.701 8.59248 11.384 8.10262 12.067C7.8087 12.4573 6.98573 13.0037 6.04519 12.067L5.84924 12.2621C5.84924 12.2621 6.43708 12.9451 5.94722 13.6281C5.6533 14.0184 4.86951 14.4087 4.1837 13.7257L3.49789 14.4087C3.02762 14.8771 2.45287 14.6039 2.22427 14.4087L1.63643 13.8233C1.08778 13.2769 1.40783 12.6849 1.63643 12.4573L6.73102 7.38349C6.73102 7.38349 6.24116 6.60291 6.24116 5.52961C6.24116 3.21243 8.12731 1.33398 10.454 1.33398C12.7807 1.33398 14.6668 3.21243 14.6668 5.52961ZM10.4541 6.99326C11.2658 6.99326 11.9237 6.33799 11.9237 5.52967C11.9237 4.72135 11.2658 4.06608 10.4541 4.06608C9.6425 4.06608 8.98454 4.72135 8.98454 5.52967C8.98454 6.33799 9.6425 6.99326 10.4541 6.99326Z" fill="#F64E2A"/>
</svg>
