<svg width="28" height="28" viewBox="0 0 28 28" fill="none" xmlns="http://www.w3.org/2000/svg">
<path d="M19.5865 0.666016H8.41317C3.55984 0.666016 0.666504 3.55935 0.666504 8.41268V19.5727C0.666504 24.4394 3.55984 27.3327 8.41317 27.3327H19.5732C24.4265 27.3327 27.3198 24.4394 27.3198 19.586V8.41268C27.3332 3.55935 24.4398 0.666016 19.5865 0.666016ZM21.9998 14.9993H8.41317L12.4265 19.0127C12.8132 19.3993 12.8132 20.0393 12.4265 20.426C12.2265 20.626 11.9732 20.7194 11.7198 20.7194C11.4665 20.7194 11.2132 20.626 11.0132 20.426L5.29317 14.706C5.1065 14.5193 4.99984 14.266 4.99984 13.9993C4.99984 13.7327 5.1065 13.4794 5.29317 13.2927L11.0132 7.57268C11.3998 7.18602 12.0398 7.18602 12.4265 7.57268C12.8132 7.95935 12.8132 8.59935 12.4265 8.98602L8.41317 12.9993H21.9998C22.5465 12.9993 22.9998 13.4527 22.9998 13.9993C22.9998 14.546 22.5465 14.9993 21.9998 14.9993Z" fill="#F64E2A"/>
</svg>
