<svg width="16" height="16" viewBox="0 0 16 16" fill="none" xmlns="http://www.w3.org/2000/svg">
<path fill-rule="evenodd" clip-rule="evenodd" d="M2.11454 3.44706C1.3335 4.22811 1.3335 5.48519 1.3335 7.99935C1.3335 10.5135 1.3335 11.7706 2.11454 12.5516C2.89559 13.3327 4.15267 13.3327 6.66683 13.3327H9.3335C11.8477 13.3327 13.1047 13.3327 13.8858 12.5516C14.6668 11.7706 14.6668 10.5135 14.6668 7.99935C14.6668 5.48519 14.6668 4.22811 13.8858 3.44706C13.1047 2.66602 11.8477 2.66602 9.3335 2.66602H6.66683C4.15267 2.66602 2.89559 2.66602 2.11454 3.44706ZM12.3843 5.01259C12.5611 5.22473 12.5324 5.54001 12.3203 5.71679L10.8559 6.93706C10.265 7.4295 9.78609 7.82863 9.36338 8.1005C8.92305 8.3837 8.49421 8.5626 8.00016 8.5626C7.50611 8.5626 7.07728 8.3837 6.63695 8.1005C6.21424 7.82863 5.7353 7.4295 5.1444 6.93707L3.68007 5.71679C3.46793 5.54001 3.43927 5.22473 3.61605 5.01259C3.79283 4.80045 4.10812 4.77179 4.32025 4.94857L5.75952 6.14796C6.38149 6.66627 6.81332 7.02496 7.17788 7.25943C7.53079 7.48641 7.77011 7.5626 8.00016 7.5626C8.23021 7.5626 8.46953 7.48641 8.82244 7.25943C9.18701 7.02496 9.61883 6.66627 10.2408 6.14796L11.6801 4.94857C11.8922 4.77179 12.2075 4.80045 12.3843 5.01259Z" fill="#F64E2A"/>
</svg>
