<svg width="16" height="16" viewBox="0 0 16 16" fill="none" xmlns="http://www.w3.org/2000/svg">
<path d="M13.5131 5.95683L13.9834 8.67667C14.1009 9.35599 13.5785 9.97733 12.8898 9.97733H9.43579C9.09345 9.97733 8.83277 10.2846 8.88818 10.6228L9.32996 13.3192C9.40173 13.7572 9.38123 14.2055 9.26978 14.6351C9.17745 14.991 8.90285 15.2768 8.5417 15.3928L8.44506 15.4239C8.2268 15.494 7.98857 15.4777 7.78279 15.3785C7.55629 15.2694 7.39059 15.0703 7.32917 14.8335L7.01203 13.611C6.91112 13.222 6.76414 12.8465 6.57463 12.4917C6.29773 11.9733 5.8696 11.5585 5.42458 11.175L4.46542 10.3485C4.19498 10.1154 4.05296 9.76643 4.08373 9.41053L4.62517 3.14875C4.67484 2.57439 5.15504 2.13346 5.73089 2.13346H8.82997C11.1508 2.13346 13.1315 3.75054 13.5131 5.95683Z" fill="#F64E2A"/>
<path fill-rule="evenodd" clip-rule="evenodd" d="M1.97844 10.4761C2.24595 10.4876 2.47507 10.2864 2.49814 10.0196L3.14587 2.52862C3.18748 2.04742 2.80846 1.63269 2.32447 1.63269C1.86859 1.63269 1.5 2.00252 1.5 2.45753V9.97655C1.5 10.2443 1.71093 10.4645 1.97844 10.4761Z" fill="#F64E2A"/>
</svg>
