<svg width="16" height="16" viewBox="0 0 16 16" fill="none" xmlns="http://www.w3.org/2000/svg">
<path d="M13.5131 10.0432L13.9834 7.32333C14.1009 6.64401 13.5785 6.02267 12.8898 6.02267H9.43579C9.09345 6.02267 8.83277 5.71539 8.88818 5.37719L9.32996 2.68082C9.40173 2.24277 9.38123 1.79454 9.26978 1.36489C9.17745 1.00896 8.90285 0.72317 8.5417 0.607153L8.44506 0.576106C8.2268 0.50599 7.98857 0.522306 7.78279 0.621465C7.55629 0.730611 7.39059 0.929693 7.32917 1.16646L7.01203 2.38903C6.91112 2.77802 6.76414 3.1535 6.57463 3.50828C6.29773 4.02665 5.8696 4.44151 5.42458 4.825L4.46542 5.65153C4.19498 5.88457 4.05296 6.23357 4.08373 6.58947L4.62517 12.8513C4.67484 13.4256 5.15504 13.8665 5.73089 13.8665H8.82997C11.1508 13.8665 13.1315 12.2495 13.5131 10.0432Z" fill="#1B961F"/>
<path fill-rule="evenodd" clip-rule="evenodd" d="M1.97844 5.52391C2.24595 5.51237 2.47507 5.71361 2.49814 5.98037L3.14587 13.4714C3.18748 13.9526 2.80846 14.3673 2.32447 14.3673C1.86859 14.3673 1.5 13.9975 1.5 13.5425V6.02345C1.5 5.75569 1.71093 5.53545 1.97844 5.52391Z" fill="#1B961F"/>
</svg>
