<svg width="21" height="20" viewBox="0 0 21 20" fill="none" xmlns="http://www.w3.org/2000/svg">
<path d="M17.0585 12.5535L17.6464 9.15368C17.7933 8.30452 17.1402 7.52785 16.2794 7.52785H11.9618C11.5339 7.52785 11.2081 7.14375 11.2773 6.721L11.8296 3.35053C11.9193 2.80297 11.8937 2.24268 11.7543 1.70562C11.6389 1.26072 11.2957 0.903474 10.8442 0.758453L10.7234 0.719644C10.4506 0.631999 10.1528 0.652394 9.89561 0.776343C9.61248 0.912775 9.40535 1.16163 9.32857 1.45759L8.93215 2.9858C8.80602 3.47204 8.62229 3.94139 8.3854 4.38486C8.03927 5.03283 7.50412 5.5514 6.94784 6.03076L5.74889 7.06392C5.41084 7.35522 5.23331 7.79148 5.27178 8.23635L5.94858 16.0636C6.01066 16.7815 6.61091 17.3327 7.33073 17.3327H11.2046C14.1057 17.3327 16.5815 15.3113 17.0585 12.5535Z" fill="white"/>
<path fill-rule="evenodd" clip-rule="evenodd" d="M2.64005 6.90489C2.97443 6.89046 3.26084 7.14201 3.28967 7.47547L4.09933 16.8392C4.15134 17.4407 3.67756 17.9591 3.07258 17.9591C2.50273 17.9591 2.04199 17.4969 2.04199 16.9281V7.52931C2.04199 7.19461 2.30566 6.91932 2.64005 6.90489Z" fill="white"/>
</svg>
