<svg width="48" height="48" viewBox="0 0 48 48" fill="none" xmlns="http://www.w3.org/2000/svg">
<g filter="url(#filter0_f_313_7679)">
<path d="M23.9998 32.4703C25.4251 32.4703 26.5806 31.3148 26.5806 29.8894C26.5806 28.4641 25.4251 27.3086 23.9998 27.3086C22.5744 27.3086 21.4189 28.4641 21.4189 29.8894C21.4189 31.3148 22.5744 32.4703 23.9998 32.4703Z" fill="#F64E2A" fill-opacity="0.4"/>
<path d="M33.9432 20.0885V18.1093C33.9432 13.8343 32.914 8.16602 23.9998 8.16602C15.0857 8.16602 14.0565 13.8343 14.0565 18.1093V20.0885C9.62317 20.6427 8.1665 22.891 8.1665 28.4168V31.3618C8.1665 37.8535 10.1457 39.8327 16.6373 39.8327H31.3623C37.854 39.8327 39.8332 37.8535 39.8332 31.3618V28.4168C39.8332 22.891 38.3765 20.6427 33.9432 20.0885ZM23.9998 34.671C21.3557 34.671 19.2182 32.5177 19.2182 29.8893C19.2182 27.2452 21.3715 25.1077 23.9998 25.1077C26.6282 25.1077 28.7815 27.261 28.7815 29.8893C28.7815 32.5335 26.644 34.671 23.9998 34.671ZM16.6373 19.946C16.5107 19.946 16.3998 19.946 16.2732 19.946V18.1093C16.2732 13.4702 17.5873 10.3827 23.9998 10.3827C30.4123 10.3827 31.7265 13.4702 31.7265 18.1093V19.9618C31.5998 19.9618 31.489 19.9618 31.3623 19.9618H16.6373V19.946Z" fill="#F64E2A" fill-opacity="0.4"/>
</g>
<path d="M23.9998 32.4703C25.4251 32.4703 26.5806 31.3148 26.5806 29.8894C26.5806 28.4641 25.4251 27.3086 23.9998 27.3086C22.5744 27.3086 21.4189 28.4641 21.4189 29.8894C21.4189 31.3148 22.5744 32.4703 23.9998 32.4703Z" fill="#F64E2A"/>
<path d="M33.9432 20.0885V18.1093C33.9432 13.8343 32.914 8.16602 23.9998 8.16602C15.0857 8.16602 14.0565 13.8343 14.0565 18.1093V20.0885C9.62317 20.6427 8.1665 22.891 8.1665 28.4168V31.3618C8.1665 37.8535 10.1457 39.8327 16.6373 39.8327H31.3623C37.854 39.8327 39.8332 37.8535 39.8332 31.3618V28.4168C39.8332 22.891 38.3765 20.6427 33.9432 20.0885ZM23.9998 34.671C21.3557 34.671 19.2182 32.5177 19.2182 29.8893C19.2182 27.2452 21.3715 25.1077 23.9998 25.1077C26.6282 25.1077 28.7815 27.261 28.7815 29.8893C28.7815 32.5335 26.644 34.671 23.9998 34.671ZM16.6373 19.946C16.5107 19.946 16.3998 19.946 16.2732 19.946V18.1093C16.2732 13.4702 17.5873 10.3827 23.9998 10.3827C30.4123 10.3827 31.7265 13.4702 31.7265 18.1093V19.9618C31.5998 19.9618 31.489 19.9618 31.3623 19.9618H16.6373V19.946Z" fill="#F64E2A"/>
<defs>
<filter id="filter0_f_313_7679" x="0.166504" y="0.166016" width="47.6665" height="47.666" filterUnits="userSpaceOnUse" color-interpolation-filters="sRGB">
<feFlood flood-opacity="0" result="BackgroundImageFix"/>
<feBlend mode="normal" in="SourceGraphic" in2="BackgroundImageFix" result="shape"/>
<feGaussianBlur stdDeviation="4" result="effect1_foregroundBlur_313_7679"/>
</filter>
</defs>
</svg>
