<svg width="21" height="20" viewBox="0 0 21 20" fill="none" xmlns="http://www.w3.org/2000/svg">
<path d="M8.00146 5.83268C8.01155 4.02016 8.09193 3.03857 8.73225 2.39825C9.46448 1.66602 10.643 1.66602 13 1.66602L13.8334 1.66602C16.1904 1.66602 17.3689 1.66602 18.1011 2.39825C18.8334 3.13048 18.8334 4.30899 18.8334 6.66602L18.8334 13.3327C18.8334 15.6897 18.8334 16.8682 18.1011 17.6004C17.3689 18.3327 16.1904 18.3327 13.8334 18.3327L13 18.3327C10.643 18.3327 9.46448 18.3327 8.73225 17.6004C8.09193 16.9601 8.01155 15.9785 8.00146 14.166" stroke="white" stroke-width="1.5" stroke-linecap="round"/>
<path d="M13 10L2.16667 10M2.16667 10L5.08333 7.5M2.16667 10L5.08333 12.5" stroke="white" stroke-width="1.5" stroke-linecap="round" stroke-linejoin="round"/>
</svg>
