<svg width="23" height="22" viewBox="0 0 23 22" fill="none" xmlns="http://www.w3.org/2000/svg">
<path fill-rule="evenodd" clip-rule="evenodd" d="M10.1723 20.7325L10.4015 20.3452C10.7689 19.7246 10.9525 19.4142 11.2451 19.2412C11.5377 19.0681 11.9194 19.0559 12.6827 19.0315C13.3984 19.0086 13.8795 18.9461 14.2908 18.7757C15.1568 18.417 15.8448 17.729 16.2035 16.8631C16.4725 16.2136 16.4725 15.3902 16.4725 13.7435V13.0367C16.4725 10.7229 16.4725 9.56606 15.9517 8.71621C15.6603 8.24067 15.2605 7.84085 14.7849 7.54944C13.9351 7.02865 12.7782 7.02865 10.4645 7.02865H8.34397C6.03022 7.02865 4.87334 7.02865 4.02349 7.54944C3.54796 7.84085 3.14814 8.24067 2.85673 8.71621C2.33594 9.56606 2.33594 10.7229 2.33594 13.0367V13.7435C2.33594 15.3902 2.33594 16.2136 2.60496 16.8631C2.96365 17.729 3.65166 18.417 4.51762 18.7757C4.92892 18.9461 5.40996 19.0086 6.12569 19.0315C6.889 19.0559 7.27066 19.0681 7.56326 19.2412C7.85585 19.4142 8.03953 19.7246 8.40689 20.3452L8.63611 20.7325C8.97762 21.3094 9.83077 21.3094 10.1723 20.7325ZM12.4966 14.0969C12.9845 14.0969 13.3801 13.7013 13.3801 13.2134C13.3801 12.7254 12.9845 12.3299 12.4966 12.3299C12.0086 12.3299 11.613 12.7254 11.613 13.2134C11.613 13.7013 12.0086 14.0969 12.4966 14.0969ZM10.2877 13.2134C10.2877 13.7013 9.89217 14.0969 9.40421 14.0969C8.91625 14.0969 8.52068 13.7013 8.52068 13.2134C8.52068 12.7254 8.91625 12.3299 9.40421 12.3299C9.89217 12.3299 10.2877 12.7254 10.2877 13.2134ZM6.31184 14.0969C6.7998 14.0969 7.19538 13.7013 7.19538 13.2134C7.19538 12.7254 6.7998 12.3299 6.31184 12.3299C5.82388 12.3299 5.42831 12.7254 5.42831 13.2134C5.42831 13.7013 5.82388 14.0969 6.31184 14.0969Z" fill="white"/>
<path d="M14.4081 2.83203C15.4638 2.83202 16.3034 2.83202 16.9767 2.89604C17.6671 2.96168 18.2508 3.09927 18.7708 3.41792C19.3058 3.74576 19.7555 4.19556 20.0834 4.73054C20.402 5.25053 20.5396 5.83424 20.6053 6.52463C20.6693 7.19792 20.6693 8.03751 20.6693 9.09322V9.81428C20.6693 10.5656 20.6693 11.1633 20.6362 11.6479C20.6024 12.1437 20.5317 12.5694 20.3666 12.968C19.9631 13.9423 19.1891 14.7163 18.2149 15.1198C18.1905 15.1299 18.166 15.1396 18.1414 15.149C18.0238 15.194 17.9231 15.2325 17.8346 15.2612C17.8475 14.8314 17.8475 14.342 17.8475 13.7896V12.9716C17.8475 11.8702 17.8475 10.9475 17.7762 10.1973C17.7015 9.41202 17.5391 8.67506 17.1241 7.99778C16.7193 7.33722 16.1639 6.78185 15.5034 6.37706C14.8261 5.96202 14.0891 5.79959 13.3038 5.72492C12.5537 5.6536 11.631 5.65362 10.5295 5.65365H8.27893C7.53085 5.65363 6.86523 5.65361 6.28014 5.67595C6.30739 5.58148 6.34474 5.47321 6.38858 5.34611C6.46313 5.12995 6.55736 4.92552 6.67685 4.73054C7.00468 4.19556 7.45448 3.74576 7.98946 3.41792C8.50944 3.09927 9.09316 2.96168 9.78354 2.89604C10.4568 2.83202 11.2964 2.83202 12.3521 2.83203H14.4081Z" fill="white"/>
</svg>
