<svg width="16" height="16" viewBox="0 0 16 16" fill="none" xmlns="http://www.w3.org/2000/svg">
<path fill-rule="evenodd" clip-rule="evenodd" d="M2.11454 3.44706C1.3335 4.22811 1.3335 5.48519 1.3335 7.99935C1.3335 10.5135 1.3335 11.7706 2.11454 12.5516C2.89559 13.3327 4.15267 13.3327 6.66683 13.3327H9.3335C11.8477 13.3327 13.1047 13.3327 13.8858 12.5516C14.6668 11.7706 14.6668 10.5135 14.6668 7.99935C14.6668 5.48519 14.6668 4.22811 13.8858 3.44706C13.1047 2.66602 11.8477 2.66602 9.3335 2.66602H6.66683C4.15267 2.66602 2.89559 2.66602 2.11454 3.44706ZM5.3335 8.66602C5.70169 8.66602 6.00016 8.36754 6.00016 7.99935C6.00016 7.63116 5.70169 7.33268 5.3335 7.33268C4.96531 7.33268 4.66683 7.63116 4.66683 7.99935C4.66683 8.36754 4.96531 8.66602 5.3335 8.66602ZM8.66683 7.99935C8.66683 8.36754 8.36835 8.66602 8.00016 8.66602C7.63197 8.66602 7.3335 8.36754 7.3335 7.99935C7.3335 7.63116 7.63197 7.33268 8.00016 7.33268C8.36835 7.33268 8.66683 7.63116 8.66683 7.99935ZM10.6668 8.66602C11.035 8.66602 11.3335 8.36754 11.3335 7.99935C11.3335 7.63116 11.035 7.33268 10.6668 7.33268C10.2986 7.33268 10.0002 7.63116 10.0002 7.99935C10.0002 8.36754 10.2986 8.66602 10.6668 8.66602Z" fill="#F64E2A"/>
</svg>
