<svg width="16" height="16" viewBox="0 0 16 16" fill="none" xmlns="http://www.w3.org/2000/svg">
<path d="M6.81094 12.8507C7.02306 12.6853 7.21547 12.4929 7.60023 12.1081L12.5308 7.17753C11.8597 6.89823 11.0649 6.43945 10.3133 5.68777C9.56147 4.93597 9.10266 4.14104 8.82338 3.46992L3.89271 8.40058L3.89269 8.40061C3.50794 8.78536 3.31554 8.97775 3.15009 9.18987C2.95492 9.44011 2.78759 9.71086 2.65106 9.99733C2.53532 10.2402 2.44928 10.4983 2.2772 11.0145L1.3698 13.7368C1.28511 13.9908 1.35123 14.2709 1.54058 14.4602C1.72993 14.6496 2.01002 14.7157 2.26406 14.631L4.98628 13.7236C5.50251 13.5515 5.76063 13.4655 6.00348 13.3498C6.28996 13.2132 6.56071 13.0459 6.81094 12.8507Z" fill="#F64E2A"/>
<path d="M13.899 5.80935C14.9228 4.78555 14.9228 3.12564 13.899 2.10184C12.8752 1.07803 11.2153 1.07803 10.1915 2.10184L9.6001 2.6932C9.6082 2.71765 9.6166 2.74244 9.62531 2.76755C9.84206 3.39232 10.251 4.21132 11.0204 4.98066C11.7897 5.75001 12.6087 6.15897 13.2335 6.37573C13.2585 6.3844 13.2832 6.39276 13.3075 6.40083L13.899 5.80935Z" fill="#F64E2A"/>
</svg>
