<svg width="21" height="20" viewBox="0 0 21 20" fill="none" xmlns="http://www.w3.org/2000/svg">
<path fill-rule="evenodd" clip-rule="evenodd" d="M14.2709 1.66602H14.3277C15.0642 1.66601 15.6582 1.666 16.1363 1.71146C16.6294 1.75835 17.059 1.85765 17.4453 2.09439C17.8365 2.33409 18.1653 2.66295 18.405 3.0541C18.6418 3.44042 18.7411 3.87003 18.788 4.36312C18.8334 4.84126 18.8334 5.43522 18.8334 6.1717V6.22865C18.8334 6.71257 18.8334 7.11642 18.8022 7.44443C18.7696 7.78734 18.6989 8.10691 18.5193 8.40002C18.3435 8.68687 18.1023 8.92804 17.8155 9.10381C17.5224 9.28344 17.2028 9.35418 16.8599 9.38679C16.5319 9.41797 16.128 9.41796 15.6441 9.41795L14.7233 9.41796C14.0268 9.41798 13.446 9.418 12.985 9.35601C12.4983 9.29058 12.0589 9.14665 11.7059 8.79357C11.3528 8.44049 11.2089 8.00111 11.1434 7.51445C11.0814 7.05338 11.0815 6.47259 11.0815 5.77609L11.0815 4.85539C11.0815 4.37147 11.0815 3.96756 11.1126 3.63954C11.1453 3.29663 11.216 2.97706 11.3956 2.68395C11.5714 2.3971 11.8126 2.15593 12.0994 1.98016C12.3925 1.80054 12.7121 1.72979 13.055 1.69719C13.383 1.666 13.7869 1.66601 14.2709 1.66602ZM14.9574 6.51098C14.5579 6.51098 14.3581 6.51098 14.2171 6.41089C14.1673 6.37558 14.1239 6.33212 14.0885 6.28235C13.9885 6.1413 13.9885 5.94153 13.9885 5.54199C13.9885 5.14246 13.9885 4.94267 14.0885 4.80162C14.1239 4.75185 14.1673 4.70839 14.2171 4.67308C14.3581 4.57299 14.5579 4.57299 14.9574 4.57299C15.357 4.57299 15.5568 4.57299 15.6978 4.67308C15.7476 4.70839 15.791 4.75185 15.8264 4.80162C15.9264 4.94267 15.9264 5.14244 15.9264 5.54198C15.9264 5.94152 15.9264 6.14129 15.8264 6.28235C15.791 6.33212 15.7476 6.37558 15.6978 6.41089C15.5568 6.51098 15.357 6.51098 14.9574 6.51098Z" fill="#F64E2A"/>
<path fill-rule="evenodd" clip-rule="evenodd" d="M8.90076 1.98016C8.60764 1.80054 8.28807 1.72979 7.94516 1.69719C7.61714 1.666 7.21327 1.66601 6.72933 1.66602H6.67245C5.93597 1.66601 5.34199 1.666 4.86386 1.71146C4.37076 1.75835 3.94115 1.85765 3.55483 2.09439C3.16369 2.33409 2.83482 2.66295 2.59512 3.0541C2.35838 3.44042 2.25908 3.87003 2.2122 4.36312C2.16674 4.84126 2.16674 5.4352 2.16675 6.17167V6.22856C2.16674 6.71251 2.16673 7.11641 2.19792 7.44443C2.23052 7.78734 2.30127 8.10691 2.48089 8.40002C2.65667 8.68687 2.89784 8.92804 3.18468 9.10381C3.47779 9.28344 3.79736 9.35418 4.14028 9.38679C4.46828 9.41797 4.87211 9.41796 5.356 9.41795L6.27682 9.41796C6.97331 9.41798 7.55412 9.418 8.01518 9.35601C8.50184 9.29058 8.94123 9.14665 9.2943 8.79357C9.64738 8.44049 9.79131 8.00111 9.85674 7.51445C9.91873 7.05338 9.91871 6.4726 9.91869 5.77611L9.91869 4.8554C9.9187 4.3715 9.91871 3.96754 9.88752 3.63954C9.85491 3.29663 9.78417 2.97706 9.60455 2.68395C9.42877 2.3971 9.1876 2.15593 8.90076 1.98016ZM5.30235 6.41089C5.44341 6.51098 5.64318 6.51098 6.04272 6.51098C6.44226 6.51098 6.64203 6.51098 6.78308 6.41089C6.83285 6.37558 6.87631 6.33212 6.91163 6.28235C7.01171 6.14129 7.01171 5.94152 7.01171 5.54198C7.01171 5.14244 7.01171 4.94267 6.91163 4.80162C6.87631 4.75185 6.83285 4.70839 6.78308 4.67308C6.64203 4.57299 6.44226 4.57299 6.04272 4.57299C5.64318 4.57299 5.44341 4.57299 5.30235 4.67308C5.25258 4.70839 5.20912 4.75185 5.17381 4.80162C5.07373 4.94267 5.07373 5.14244 5.07373 5.54198C5.07373 5.94152 5.07373 6.14129 5.17381 6.28235C5.20912 6.33212 5.25258 6.37558 5.30235 6.41089Z" fill="#F64E2A"/>
<path fill-rule="evenodd" clip-rule="evenodd" d="M8.01518 10.6427C8.50184 10.7081 8.94123 10.8521 9.2943 11.2051C9.64738 11.5582 9.79131 11.9976 9.85674 12.4842C9.91873 12.9453 9.91871 13.5261 9.91869 14.2226L9.91869 15.1433C9.9187 15.6272 9.91871 16.0311 9.88752 16.3592C9.85491 16.7021 9.78417 17.0216 9.60455 17.3148C9.42877 17.6016 9.1876 17.8428 8.90076 18.0185C8.60764 18.1982 8.28807 18.2689 7.94516 18.3015C7.61715 18.3327 7.21322 18.3327 6.72931 18.3327H6.67244C5.93595 18.3327 5.34199 18.3327 4.86386 18.2872C4.37076 18.2403 3.94115 18.141 3.55483 17.9043C3.16369 17.6646 2.83482 17.3357 2.59512 16.9446C2.35838 16.5583 2.25908 16.1287 2.2122 15.6356C2.16674 15.1574 2.16674 14.5635 2.16675 13.827V13.7701C2.16674 13.2862 2.16673 12.8823 2.19792 12.5543C2.23052 12.2114 2.30127 11.8918 2.48089 11.5987C2.65667 11.3118 2.89784 11.0707 3.18468 10.8949C3.47779 10.7153 3.79736 10.6445 4.14028 10.6119C4.46828 10.5807 4.87215 10.5807 5.35606 10.5807L6.27683 10.5807C6.97332 10.5807 7.55411 10.5807 8.01518 10.6427ZM6.04272 15.4257C5.64318 15.4257 5.44341 15.4257 5.30235 15.3256C5.25258 15.2903 5.20912 15.2468 5.17381 15.1971C5.07373 15.056 5.07373 14.8563 5.07373 14.4567C5.07373 14.0572 5.07373 13.8574 5.17381 13.7163C5.20912 13.6666 5.25258 13.6231 5.30235 13.5878C5.44341 13.4877 5.64317 13.4877 6.04271 13.4877C6.44224 13.4877 6.64203 13.4877 6.78308 13.5878C6.83285 13.6231 6.87631 13.6666 6.91163 13.7163C7.01171 13.8574 7.01171 14.0572 7.01171 14.4567C7.01171 14.8563 7.01171 15.056 6.91163 15.1971C6.87631 15.2468 6.83285 15.2903 6.78308 15.3256C6.64203 15.4257 6.44226 15.4257 6.04272 15.4257Z" fill="#F64E2A"/>
<path d="M11.0815 13.8456V13.8753H12.2443C12.2443 13.3189 12.245 12.9453 12.2739 12.6605C12.3019 12.3854 12.3514 12.2583 12.4076 12.1742C12.4783 12.0684 12.5691 11.9775 12.6749 11.9068C12.759 11.8507 12.8861 11.8012 13.1612 11.7732C13.446 11.7442 13.8196 11.7435 14.376 11.7435H15.9264V10.5807H14.3463C13.8273 10.5807 13.3941 10.5807 13.0435 10.6164C12.6765 10.6537 12.3359 10.7349 12.0289 10.94C11.7961 11.0955 11.5963 11.2954 11.4407 11.5282C11.2356 11.8351 11.1545 12.1757 11.1171 12.5428C11.0815 12.8934 11.0815 13.3265 11.0815 13.8456Z" fill="#F64E2A"/>
<path d="M18.8334 15.4453V15.4257H17.6706C17.6706 15.7949 17.6703 16.0426 17.6572 16.2344C17.6445 16.421 17.6216 16.5119 17.5969 16.5717C17.4985 16.8091 17.3099 16.9978 17.0724 17.0961C17.0126 17.1209 16.9218 17.1438 16.7352 17.1565C16.5433 17.1696 16.2956 17.1699 15.9264 17.1699H14.376V18.3327H15.946C16.2906 18.3327 16.5782 18.3327 16.8143 18.3166C17.0601 18.2998 17.2923 18.2637 17.5174 18.1704C18.0398 17.954 18.4548 17.539 18.6711 17.0167C18.7644 16.7916 18.8005 16.5594 18.8173 16.3136C18.8334 16.0774 18.8334 15.7898 18.8334 15.4453Z" fill="#F64E2A"/>
<path d="M12.2443 17.7513C12.2443 18.0724 11.984 18.3327 11.6629 18.3327C11.3418 18.3327 11.0815 18.0724 11.0815 17.7513V15.4257H12.2443V17.7513Z" fill="#F64E2A"/>
<path d="M18.252 10.5807C17.9309 10.5807 17.6706 10.841 17.6706 11.1621V13.8753H18.8334V11.1621C18.8334 10.841 18.5731 10.5807 18.252 10.5807Z" fill="#F64E2A"/>
<path d="M13.8968 13.8471C13.8334 14.0003 13.8334 14.1944 13.8334 14.5827C13.8334 14.971 13.8334 15.1651 13.8968 15.3183C13.9814 15.5224 14.1437 15.6847 14.3478 15.7692C14.501 15.8327 14.6951 15.8327 15.0834 15.8327C15.4717 15.8327 15.6658 15.8327 15.819 15.7692C16.0232 15.6847 16.1854 15.5224 16.27 15.3183C16.3334 15.1651 16.3334 14.971 16.3334 14.5827C16.3334 14.1944 16.3334 14.0003 16.27 13.8471C16.1854 13.6429 16.0232 13.4807 15.819 13.3961C15.6658 13.3327 15.4717 13.3327 15.0834 13.3327C14.6951 13.3327 14.501 13.3327 14.3478 13.3961C14.1437 13.4807 13.9814 13.6429 13.8968 13.8471Z" fill="#F64E2A"/>
</svg>
