<svg width="24" height="25" viewBox="0 0 24 25" fill="none" xmlns="http://www.w3.org/2000/svg">
<path d="M3.67981 11.8333H2.67981H3.67981ZM3.67981 13.5L2.97549 14.2099C3.36537 14.5967 3.99426 14.5967 4.38414 14.2099L3.67981 13.5ZM6.06395 12.5432C6.456 12.1542 6.45849 11.5211 6.0695 11.129C5.68051 10.737 5.04735 10.7345 4.6553 11.1235L6.06395 12.5432ZM2.70432 11.1235C2.31227 10.7345 1.67911 10.737 1.29012 11.129C0.901134 11.5211 0.903621 12.1542 1.29568 12.5432L2.70432 11.1235ZM18.4026 8.02372C18.6918 8.49421 19.3077 8.64113 19.7782 8.35189C20.2487 8.06265 20.3956 7.44677 20.1064 6.97628L18.4026 8.02372ZM12.0789 2.5C6.89533 2.5 2.67981 6.67128 2.67981 11.8333H4.67981C4.67981 7.79064 7.98506 4.5 12.0789 4.5V2.5ZM2.67981 11.8333L2.67981 13.5H4.67981L4.67981 11.8333H2.67981ZM4.38414 14.2099L6.06395 12.5432L4.6553 11.1235L2.97549 12.7901L4.38414 14.2099ZM4.38414 12.7901L2.70432 11.1235L1.29568 12.5432L2.97549 14.2099L4.38414 12.7901ZM20.1064 6.97628C18.4561 4.29191 15.4771 2.5 12.0789 2.5V4.5C14.7586 4.5 17.1036 5.91081 18.4026 8.02372L20.1064 6.97628Z" fill="#F64E2A"/>
<path d="M20.3139 11.5L21.0169 10.7888C20.6273 10.4037 20.0005 10.4037 19.6109 10.7888L20.3139 11.5ZM17.9247 12.4554C17.5319 12.8437 17.5282 13.4768 17.9164 13.8696C18.3047 14.2624 18.9378 14.2661 19.3306 13.8779L17.9247 12.4554ZM21.2972 13.8779C21.69 14.2661 22.3231 14.2624 22.7114 13.8696C23.0996 13.4768 23.0959 12.8437 22.7031 12.4554L21.2972 13.8779ZM5.53068 16.9748C5.24064 16.5048 4.62451 16.359 4.15452 16.649C3.68452 16.939 3.53865 17.5552 3.82869 18.0252L5.53068 16.9748ZM11.8827 22.5C17.0804 22.5 21.3139 18.3323 21.3139 13.1667H19.3139C19.3139 17.2058 15.9979 20.5 11.8827 20.5V22.5ZM21.3139 13.1667V11.5H19.3139V13.1667H21.3139ZM19.6109 10.7888L17.9247 12.4554L19.3306 13.8779L21.0169 12.2112L19.6109 10.7888ZM19.6109 12.2112L21.2972 13.8779L22.7031 12.4554L21.0169 10.7888L19.6109 12.2112ZM3.82869 18.0252C5.48542 20.7098 8.47467 22.5 11.8827 22.5V20.5C9.1896 20.5 6.83447 19.0875 5.53068 16.9748L3.82869 18.0252Z" fill="#F64E2A"/>
</svg>
