<svg width="12" height="11" viewBox="0 0 12 11" fill="none" xmlns="http://www.w3.org/2000/svg">
<path d="M4.69455 2.47819C5.2751 1.43674 5.56537 0.916016 5.99935 0.916016C6.43333 0.916016 6.7236 1.43674 7.30415 2.47819L7.45434 2.74762C7.61932 3.04357 7.7018 3.19154 7.83042 3.28918C7.95903 3.38681 8.11921 3.42305 8.43957 3.49554L8.73123 3.56153C9.85858 3.8166 10.4223 3.94414 10.5564 4.37539C10.6905 4.80664 10.3062 5.25601 9.53764 6.15473L9.3388 6.38724C9.1204 6.64263 9.0112 6.77033 8.96208 6.9283C8.91295 7.08628 8.92946 7.25665 8.96248 7.59739L8.99254 7.90761C9.10874 9.10671 9.16683 9.70625 8.81574 9.97278C8.46464 10.2393 7.93687 9.99631 6.88133 9.5103L6.60825 9.38457C6.3083 9.24646 6.15832 9.1774 5.99935 9.1774C5.84037 9.1774 5.6904 9.24646 5.39045 9.38457L5.11737 9.5103C4.06182 9.99631 3.53405 10.2393 3.18296 9.97278C2.83186 9.70625 2.88996 9.10671 3.00616 7.90761L3.03622 7.59739C3.06924 7.25665 3.08575 7.08628 3.03662 6.9283C2.98749 6.77033 2.87829 6.64263 2.65989 6.38724L2.46106 6.15473C1.6925 5.25601 1.30823 4.80664 1.44233 4.37539C1.57644 3.94414 2.14012 3.8166 3.26747 3.56153L3.55913 3.49554C3.87949 3.42305 4.03967 3.38681 4.16828 3.28918C4.29689 3.19154 4.37938 3.04357 4.54435 2.74762L4.69455 2.47819Z" fill="#1F1E2B"/>
</svg>
