<svg width="23" height="23" viewBox="0 0 23 23" fill="none" xmlns="http://www.w3.org/2000/svg">
<path d="M11.5 23C17.8513 23 23 17.8513 23 11.5C23 5.14873 17.8513 0 11.5 0C5.14873 0 0 5.14873 0 11.5C0 17.8513 5.14873 23 11.5 23Z" fill="#F64E2A"/>
<path d="M11.0482 16.36C10.3549 16.3387 9.73624 16.2747 9.19224 16.168C8.64824 16.0507 8.15224 15.8907 7.70424 15.688V13.624C8.14158 13.8373 8.66958 14.0347 9.28824 14.216C9.90691 14.3867 10.4936 14.488 11.0482 14.52V12.104C10.4296 11.8587 9.90158 11.624 9.46424 11.4C9.03758 11.176 8.69091 10.9413 8.42424 10.696C8.16824 10.44 7.98158 10.1627 7.86424 9.864C7.74691 9.55467 7.68824 9.20267 7.68824 8.808C7.68824 8.27467 7.82691 7.816 8.10424 7.432C8.39224 7.03733 8.78691 6.72267 9.28824 6.488C9.80024 6.25333 10.3869 6.10933 11.0482 6.056V4.856H12.1202V6.024C12.7176 6.04533 13.2776 6.11467 13.8002 6.232C14.3336 6.34933 14.8509 6.52 15.3522 6.744L14.6162 8.568C14.1896 8.38667 13.7576 8.248 13.3202 8.152C12.8936 8.056 12.4936 7.992 12.1202 7.96V10.264C12.6962 10.4773 13.2456 10.712 13.7682 10.968C14.2909 11.2133 14.7122 11.528 15.0322 11.912C15.3629 12.296 15.5282 12.8027 15.5282 13.432C15.5282 14.2107 15.2456 14.8613 14.6802 15.384C14.1149 15.9067 13.2616 16.2213 12.1202 16.328V17.928H11.0482V16.36ZM12.1202 14.472C12.4829 14.408 12.7496 14.3013 12.9202 14.152C13.0909 13.992 13.1762 13.7893 13.1762 13.544C13.1762 13.3947 13.1336 13.2667 13.0482 13.16C12.9736 13.0427 12.8562 12.936 12.6962 12.84C12.5469 12.7333 12.3549 12.6267 12.1202 12.52V14.472ZM11.0482 7.992C10.8349 8.024 10.6536 8.07733 10.5042 8.152C10.3549 8.216 10.2376 8.30667 10.1522 8.424C10.0776 8.53067 10.0402 8.65867 10.0402 8.808C10.0402 8.95733 10.0722 9.09067 10.1362 9.208C10.2109 9.31467 10.3229 9.42133 10.4722 9.528C10.6216 9.624 10.8136 9.72533 11.0482 9.832V7.992Z" fill="white"/>
</svg>
