<svg width="23" height="21" viewBox="0 0 23 21" fill="none" xmlns="http://www.w3.org/2000/svg">
<g clip-path="url(#clip0_313_7754)">
<path fill-rule="evenodd" clip-rule="evenodd" d="M4.21144 0.598228L0.0177296 9.40373C0.00177129 9.43648 -0.00328578 9.47348 0.00329788 9.50931C0.00988155 9.54514 0.0277606 9.57792 0.0543203 9.60287L11.3805 20.4519C11.4127 20.4828 11.4555 20.5 11.5001 20.5C11.5447 20.5 11.5875 20.4828 11.6197 20.4519L22.9459 9.60355C22.9725 9.5786 22.9903 9.54581 22.9969 9.50998C23.0035 9.47415 22.9985 9.43716 22.9825 9.40441L18.7888 0.598906C18.7753 0.569333 18.7535 0.544281 18.7261 0.526744C18.6987 0.509208 18.6668 0.499927 18.6343 0.500013H4.36729C4.3346 0.499607 4.30249 0.508663 4.27484 0.52609C4.24718 0.543518 4.22516 0.568571 4.21144 0.598228Z" fill="#50AF95"/>
<path fill-rule="evenodd" clip-rule="evenodd" d="M12.9553 10.3076C12.874 10.3137 12.4538 10.3388 11.5167 10.3388C10.7713 10.3388 10.2421 10.3164 10.0565 10.3076C7.17596 10.181 5.02591 9.67972 5.02591 9.07959C5.02591 8.47946 7.17596 7.9789 10.0565 7.85021V9.80841C10.2448 9.82196 10.7842 9.8538 11.5296 9.8538C12.424 9.8538 12.8719 9.81654 12.9526 9.80909V7.85156C15.827 7.97958 17.9723 8.48082 17.9723 9.07959C17.9723 9.67836 15.8276 10.1796 12.9526 10.3069L12.9553 10.3076ZM12.9553 7.64904V5.89674H16.9667V3.22461H6.04503V5.89674H10.0558V7.64836C6.79582 7.79805 4.34424 8.44356 4.34424 9.21709C4.34424 9.99062 6.79582 10.6355 10.0558 10.7858V16.401H12.9546V10.7838C16.2071 10.6341 18.6546 9.98927 18.6546 9.21641C18.6546 8.44356 16.2091 7.79873 12.9546 7.64836L12.9553 7.64904Z" fill="white"/>
</g>
<defs>
<clipPath id="clip0_313_7754">
<rect width="23" height="20" fill="white" transform="translate(0 0.5)"/>
</clipPath>
</defs>
</svg>
