<svg width="55" height="55" viewBox="0 0 55 55" fill="none" xmlns="http://www.w3.org/2000/svg">
<rect x="2.5" y="2.5" width="50" height="50" rx="25" fill="#F64E2A"/>
<rect x="2.5" y="2.5" width="50" height="50" rx="25" stroke="#21212D" stroke-width="5"/>
<path d="M27.5001 32.4333V32.58C27.5001 32.9533 27.2067 33.2467 26.8334 33.2467H14.8334C14.4601 33.2467 14.1667 32.9533 14.1667 32.58V32.4333C14.1667 30.0867 14.7534 29.5 17.1267 29.5H24.5401C26.9134 29.5 27.5001 30.0867 27.5001 32.4333Z" fill="#121119"/>
<path d="M14.8334 34.5801C14.4601 34.5801 14.1667 34.8734 14.1667 35.2467V36.5801V37.9001C14.1667 40.2467 14.7534 40.8334 17.1267 40.8334H24.5401C26.9134 40.8334 27.5001 40.2467 27.5001 37.9001V36.5801V35.2467C27.5001 34.8734 27.2067 34.5801 26.8334 34.5801H14.8334Z" fill="#121119"/>
<path d="M40.8333 31.5C40.8333 36.66 36.66 40.8333 31.5 40.8333L32.9 38.5" stroke="#121119" stroke-width="2" stroke-linecap="round" stroke-linejoin="round"/>
<path d="M14.1667 23.4993C14.1667 18.3393 18.3401 14.166 23.5001 14.166L22.1001 16.4993" stroke="#121119" stroke-width="2" stroke-linecap="round" stroke-linejoin="round"/>
<path d="M36.1667 26.166C39.4805 26.166 42.1667 23.4797 42.1667 20.166C42.1667 16.8523 39.4805 14.166 36.1667 14.166C32.853 14.166 30.1667 16.8523 30.1667 20.166C30.1667 23.4797 32.853 26.166 36.1667 26.166Z" fill="#121119"/>
</svg>
